<svg xmlns="http://www.w3.org/2000/svg" viewBox="8 0 96 96" role="img" aria-label="episteme mark" shape-rendering="crispEdges">
  <title>episteme — mark</title>

  <g fill="#A89BE8">
    <rect x="54" y="4"  width="4"  height="4"/>
    <rect x="50" y="8"  width="8"  height="4"/>
    <rect x="46" y="12" width="12" height="4"/>
    <rect x="42" y="16" width="20" height="4"/>
    <rect x="38" y="20" width="28" height="4"/>
    <rect x="34" y="24" width="36" height="4"/>
    <rect x="30" y="28" width="44" height="4"/>
    <rect x="14" y="32" width="76" height="6"/>
  </g>

  <g fill="#7B6EC8">
    <rect x="32" y="38" width="40" height="4"/>
    <rect x="30" y="42" width="4"  height="22"/>
    <rect x="70" y="42" width="4"  height="22"/>
    <rect x="18" y="62" width="68" height="8"/>
    <rect x="20" y="70" width="64" height="18"/>
    <rect x="20" y="88" width="18" height="4"/>
    <rect x="66" y="88" width="18" height="4"/>
  </g>

  <g fill="#F5F0FF">
    <rect x="34" y="42" width="36" height="18"/>
    <rect x="34" y="60" width="36" height="4"/>
    <rect x="36" y="64" width="32" height="4"/>
    <rect x="40" y="68" width="24" height="4"/>
    <rect x="44" y="72" width="16" height="4"/>
    <rect x="48" y="76" width="8"  height="4"/>
  </g>

  <g fill="#1A1740">
    <rect x="40" y="50" width="4" height="4"/>
    <rect x="60" y="50" width="4" height="4"/>
  </g>

  <g fill="#A89BE8">
    <rect x="88"  y="28" width="12" height="4"/>
    <rect x="84"  y="32" width="16" height="4"/>
    <rect x="84"  y="36" width="8"  height="4"/>
    <rect x="96"  y="36" width="4"  height="4"/>
    <rect x="92"  y="40" width="12" height="4"/>
    <rect x="96"  y="44" width="12" height="4"/>
    <rect x="96"  y="48" width="12" height="4"/>
    <rect x="92"  y="52" width="16" height="4"/>
    <rect x="88"  y="56" width="16" height="4"/>
    <rect x="84"  y="60" width="16" height="4"/>
    <rect x="82"  y="64" width="12" height="4"/>
    <rect x="86"  y="68" width="12" height="4"/>
    <rect x="92"  y="72" width="12" height="4"/>
    <rect x="96"  y="76" width="8"  height="4"/>
    <rect x="100" y="80" width="4"  height="4"/>
  </g>
  <g fill="#9B8EDB">
    <rect x="92" y="36" width="4" height="4"/>
    <rect x="96" y="52" width="8" height="4"/>
    <rect x="84" y="64" width="6" height="4"/>
  </g>
  <rect x="94" y="32" width="3" height="3" fill="#F8E7A3"/>

  <rect x="76" y="58" width="8" height="4" fill="#F5F0FF"/>
</svg>
